<svg xmlns="http://www.w3.org/2000/svg" viewBox="0 0 128 128">
  <rect width="128" height="128" rx="24" fill="#166534"/>
  <path d="M82.2 42.8C78.4 36.2 71 32 62 32c-7.5 0-13.8 2.2-18.5 6.5C38.8 43 36.5 48.8 36.5 56c0 6 2 10.8 6 14.5 3.8 3.5 9.8 6.5 18 9 6 1.8 10 3.8 12.2 5.5 2.2 1.8 3.3 4.2 3.3 7.2 0 3.5-1.5 6.2-4.5 8.2-3 2-7 3-12 3-5.5 0-10-1.5-13.5-4.5-3.2-2.8-5.2-6.2-6-10.2l-12 3.5c1.5 6.5 5.2 11.8 11 15.8C45 111.5 52 114 60 114c8.5 0 15.5-2.5 21-7.5 5.5-5 8.2-11.5 8.2-19.2 0-6.2-2-11.2-6.2-15-4-3.8-10-6.8-18-9-6-1.8-10-3.5-12-5.2-2-1.5-3-3.8-3-6.5 0-3.2 1.3-5.8 4-7.8 2.8-2 6.2-3 10.2-3 4 0 7.5 1 10.2 3 2.5 1.8 4.2 4.2 5 7l12.8-4.5z" fill="#FAFAF9"/>
</svg>
